<svg xmlns="http://www.w3.org/2000/svg" xmlns:xlink="http://www.w3.org/1999/xlink" width="840" height="581.04"><rect width="840" height="581.04" rx="5" ry="5" class="a"/><svg y="0%" x="0%"><circle cx="20" cy="20" r="6" fill="#ff5f58"/><circle cx="40" cy="20" r="6" fill="#ffbd2e"/><circle cx="60" cy="20" r="6" fill="#18c132"/></svg><svg height="521.04" viewBox="0 0 80 52.104" width="800" x="15" xmlns="http://www.w3.org/2000/svg" xmlns:xlink="http://www.w3.org/1999/xlink" y="50"><style>@keyframes m{0%{transform:translateX(0)}.18%{transform:translateX(-160px)}5.05%{transform:translateX(-240px)}14.79%{transform:translateX(-320px)}29.37%{transform:translateX(-400px)}39.1%{transform:translateX(-480px)}43.97%{transform:translateX(-560px)}51.27%{transform:translateX(-640px)}56.15%{transform:translateX(-720px)}61.02%{transform:translateX(-800px)}65.89%{transform:translateX(-880px)}70.77%{transform:translateX(-960px)}75.64%{transform:translateX(-1040px)}80.5%{transform:translateX(-1120px)}90.23%{transform:translateX(-1200px)}to{transform:translateX(-1440px)}}.a{fill:#282d35}.f{fill:#66c2cd;font-weight:700}.f,.g,.h,.i,.j{white-space:pre}.g{fill:#d290e4;font-weight:700}.h,.i,.j{fill:#b9c0cb}.i,.j{fill:#a8cc8c;font-weight:700}.j{fill:#dbab79}</style><g font-family="Monaco,Consolas,Menlo,'Bitstream Vera Sans Mono','Powerline Symbols',monospace" font-size="1.67"><defs><symbol id="1"><text y="1.67" class="f">$</text><text x="2.004" y="1.67" class="f">cd</text><text x="5.01" y="1.67" class="f">/home/umesh/Sentinent_os</text></symbol><symbol id="2"><text y="1.67" class="f">$</text><text x="2.004" y="1.67" class="f">bin/matrix-inspect</text></symbol><symbol id="3"><text y="1.67" class="g">[MatrixBox</text><text x="11.022" y="1.67" class="g">Container</text><text x="21.042" y="1.67" class="g">Engine]</text><text x="29.058" y="1.67" class="h">Listing</text><text x="37.074" y="1.67" class="h">active</text><text x="44.088" y="1.67" class="h">containers:</text></symbol><symbol id="4"><text y="1.67" class="h">┌────────────────────┬──────────────┬─────────────┬─────────────────┐</text></symbol><symbol id="5"><text y="1.67" class="h">│</text><text x="2.004" y="1.67" class="h">CONTAINER</text><text x="12.024" y="1.67" class="h">ID</text><text x="21.042" y="1.67" class="h">│</text><text x="23.046" y="1.67" class="h">APPLICATION</text><text x="36.072" y="1.67" class="h">│</text><text x="38.076" y="1.67" class="h">STATUS</text><text x="50.1" y="1.67" class="h">│</text><text x="52.104" y="1.67" class="h">CREATED</text><text x="68.136" y="1.67" class="h">│</text></symbol><symbol id="6"><text y="1.67" class="h">├────────────────────┼──────────────┼─────────────┼─────────────────┤</text></symbol><symbol id="7"><text y="1.67" class="h">│</text><text x="2.004" y="1.67" class="h">matrix://app-fb32c</text><text x="21.042" y="1.67" class="h">│</text><text x="23.046" y="1.67" class="h">payment-api</text><text x="36.072" y="1.67" class="h">│</text><text x="38.076" y="1.67" class="h">RUNNING</text><text x="50.1" y="1.67" class="h">│</text><text x="52.104" y="1.67" class="h">12</text><text x="55.11" y="1.67" class="h">minutes</text><text x="63.126" y="1.67" class="h">ago</text><text x="68.136" y="1.67" class="h">│</text></symbol><symbol id="8"><text y="1.67" class="h">│</text><text x="2.004" y="1.67" class="h">matrix://app-7e91a</text><text x="21.042" y="1.67" class="h">│</text><text x="23.046" y="1.67" class="h">auth-service</text><text x="36.072" y="1.67" class="h">│</text><text x="38.076" y="1.67" class="h">RUNNING</text><text x="50.1" y="1.67" class="h">│</text><text x="52.104" y="1.67" class="h">25</text><text x="55.11" y="1.67" class="h">minutes</text><text x="63.126" y="1.67" class="h">ago</text><text x="68.136" y="1.67" class="h">│</text></symbol><symbol id="9"><text y="1.67" class="h">└────────────────────┴──────────────┴─────────────┴─────────────────┘</text></symbol><symbol id="10"><text y="1.67" class="f">$</text><text x="2.004" y="1.67" class="f">bin/matrix-run</text><text x="17.034" y="1.67" class="f">projects/data-processor/server.js</text></symbol><symbol id="11"><text y="1.67" class="g">[MatrixBox</text><text x="11.022" y="1.67" class="g">Container</text><text x="21.042" y="1.67" class="g">Engine]</text><text x="29.058" y="1.67" class="h">Creating</text><text x="38.076" y="1.67" class="h">secure</text><text x="45.09" y="1.67" class="h">container</text><text x="55.11" y="1.67" class="h">environment...</text></symbol><symbol id="12"><text y="1.67" class="g">[MatrixBox</text><text x="11.022" y="1.67" class="g">Container</text><text x="21.042" y="1.67" class="g">Engine]</text><text x="29.058" y="1.67" class="h">Scanning</text><text x="38.076" y="1.67" class="h">code</text><text x="43.086" y="1.67" class="h">for</text><text x="47.094" y="1.67" class="h">vulnerabilities...</text></symbol><symbol id="13"><text y="1.67" class="g">[MatrixBox</text><text x="11.022" y="1.67" class="g">Container</text><text x="21.042" y="1.67" class="g">Engine]</text><text x="29.058" y="1.67" class="h">Setting</text><text x="37.074" y="1.67" class="h">up</text><text x="40.08" y="1.67" class="h">isolated</text><text x="49.098" y="1.67" class="h">runtime...</text></symbol><symbol id="14"><text y="1.67" class="g">[MatrixBox</text><text x="11.022" y="1.67" class="g">Container</text><text x="21.042" y="1.67" class="g">Engine]</text><text x="29.058" y="1.67" class="h">Applying</text><text x="38.076" y="1.67" class="h">resource</text><text x="47.094" y="1.67" class="h">limits:</text><text x="55.11" y="1.67" class="h">cpu=2</text><text x="61.122" y="1.67" class="h">memory=512MB</text></symbol><symbol id="15"><text y="1.67" class="g">[MatrixBox</text><text x="11.022" y="1.67" class="g">Container</text><text x="21.042" y="1.67" class="g">Engine]</text><text x="29.058" y="1.67" class="h">Creating</text><text x="38.076" y="1.67" class="h">network</text><text x="46.092" y="1.67" class="h">security</text><text x="55.11" y="1.67" class="h">boundaries...</text></symbol><symbol id="16"><text y="1.67" class="i">✓</text><text x="2.004" y="1.67" class="i">MatrixBox</text><text x="12.024" y="1.67" class="i">container</text><text x="22.044" y="1.67" class="i">initialized:</text><text x="35.07" y="1.67" class="i">matrix://app-c4d71</text></symbol><symbol id="17"><text y="1.67" class="j">[Data</text><text x="6.012" y="1.67" class="j">Processor]</text><text x="17.034" y="1.67" class="h">Starting</text><text x="26.052" y="1.67" class="h">server</text><text x="33.066" y="1.67" class="h">on</text><text x="36.072" y="1.67" class="h">port</text><text x="41.082" y="1.67" class="h">3002...</text></symbol><symbol id="18"><text y="1.67" class="j">[Data</text><text x="6.012" y="1.67" class="j">Processor]</text><text x="17.034" y="1.67" class="h">Connected</text><text x="27.054" y="1.67" class="h">to</text><text x="30.06" y="1.67" class="h">data</text><text x="35.07" y="1.67" class="h">sources</text></symbol><symbol id="19"><text y="1.67" class="i">✓</text><text x="2.004" y="1.67" class="i">Application</text><text x="14.028" y="1.67" class="i">running</text><text x="22.044" y="1.67" class="i">in</text><text x="25.05" y="1.67" class="i">MatrixBox</text><text x="35.07" y="1.67" class="i">container</text></symbol><symbol id="20"><text y="1.67" class="f">$</text><text x="2.004" y="1.67" class="f">bin/matrix-stats</text><text x="19.038" y="1.67" class="f">matrix://app-c4d71</text></symbol><symbol id="21"><text y="1.67" class="g">[MatrixBox</text><text x="11.022" y="1.67" class="g">Stats]</text><text x="18.036" y="1.67" class="h">Container:</text><text x="29.058" y="1.67" class="h">matrix://app-c4d71</text><text x="48.096" y="1.67" class="h">(data-processor)</text></symbol><symbol id="22"><text y="1.67" class="h">┌─────────────────────────────────────────────────────────────┐</text></symbol><symbol id="23"><text y="1.67" class="h">│</text><text x="2.004" y="1.67" class="h">CPU:</text><text x="7.014" y="1.67" class="h">12.4%</text><text x="38.076" y="1.67" class="h">Memory:</text><text x="46.092" y="1.67" class="h">187.5</text><text x="52.104" y="1.67" class="h">MB</text><text x="55.11" y="1.67" class="h">/</text><text x="57.114" y="1.67" class="h">512MB</text><text x="63.126" y="1.67" class="h">│</text></symbol><symbol id="24"><text y="1.67" class="h">│</text><text x="2.004" y="1.67" class="h">Network:</text><text x="11.022" y="1.67" class="h">1.27</text><text x="16.032" y="1.67" class="h">MB/s</text><text x="38.076" y="1.67" class="h">Disk:</text><text x="44.088" y="1.67" class="h">4.8</text><text x="48.096" y="1.67" class="h">MB/s</text><text x="63.126" y="1.67" class="h">│</text></symbol><symbol id="25"><text y="1.67" class="h">│</text><text x="2.004" y="1.67" class="h">Uptime:</text><text x="10.02" y="1.67" class="h">00:01:42</text><text x="38.076" y="1.67" class="h">Status:</text><text x="46.092" y="1.67" class="h">HEALTHY</text><text x="63.126" y="1.67" class="h">│</text></symbol><symbol id="a"><path fill="transparent" d="M0 0h80v25H0z"/></symbol><symbol id="b"><path fill="#6f7683" d="M0 0h1.102v2.171H0z"/></symbol></defs><path class="a" d="M0 0h80v52.104H0z"/><g style="animation-duration:20.585493s;animation-iteration-count:infinite;animation-name:m;animation-timing-function:steps(1,end)"><svg width="1520"><svg><use xlink:href="#a"/><use xlink:href="#b" x="-.004"/></svg><svg x="80"><use xlink:href="#a"/><use xlink:href="#b" x="-.004"/></svg><svg x="160"><use xlink:href="#a"/><use xlink:href="#b" x="-.004" y="2.146"/><use xlink:href="#1"/></svg><svg x="240"><use xlink:href="#a"/><use xlink:href="#b" x="-.004" y="4.317"/><use xlink:href="#1"/><use xlink:href="#2" y="2.171"/></svg><svg x="320"><use xlink:href="#a"/><use xlink:href="#b" x="-.004" y="19.514"/><use xlink:href="#1"/><use xlink:href="#2" y="2.171"/><use xlink:href="#3" y="4.342"/><use xlink:href="#4" y="6.513"/><use xlink:href="#5" y="8.684"/><use xlink:href="#6" y="10.855"/><use xlink:href="#7" y="13.026"/><use xlink:href="#8" y="15.197"/><use xlink:href="#9" y="17.368"/></svg><svg x="400"><use xlink:href="#a"/><use xlink:href="#b" x="-.004" y="21.685"/><use xlink:href="#1"/><use xlink:href="#2" y="2.171"/><use xlink:href="#3" y="4.342"/><use xlink:href="#4" y="6.513"/><use xlink:href="#5" y="8.684"/><use xlink:href="#6" y="10.855"/><use xlink:href="#7" y="13.026"/><use xlink:href="#8" y="15.197"/><use xlink:href="#9" y="17.368"/><use xlink:href="#10" y="19.539"/></svg><svg x="480"><use xlink:href="#a"/><use xlink:href="#b" x="-.004" y="23.856"/><use xlink:href="#1"/><use xlink:href="#2" y="2.171"/><use xlink:href="#3" y="4.342"/><use xlink:href="#4" y="6.513"/><use xlink:href="#5" y="8.684"/><use xlink:href="#6" y="10.855"/><use xlink:href="#7" y="13.026"/><use xlink:href="#8" y="15.197"/><use xlink:href="#9" y="17.368"/><use xlink:href="#10" y="19.539"/><use xlink:href="#11" y="21.71"/></svg><svg x="560"><use xlink:href="#a"/><use xlink:href="#b" x="-.004" y="26.027"/><use xlink:href="#1"/><use xlink:href="#2" y="2.171"/><use xlink:href="#3" y="4.342"/><use xlink:href="#4" y="6.513"/><use xlink:href="#5" y="8.684"/><use xlink:href="#6" y="10.855"/><use xlink:href="#7" y="13.026"/><use xlink:href="#8" y="15.197"/><use xlink:href="#9" y="17.368"/><use xlink:href="#10" y="19.539"/><use xlink:href="#11" y="21.71"/><use xlink:href="#12" y="23.881"/></svg><svg x="640"><use xlink:href="#a"/><use xlink:href="#b" x="-.004" y="28.198"/><use xlink:href="#1"/><use xlink:href="#2" y="2.171"/><use xlink:href="#3" y="4.342"/><use xlink:href="#4" y="6.513"/><use xlink:href="#5" y="8.684"/><use xlink:href="#6" y="10.855"/><use xlink:href="#7" y="13.026"/><use xlink:href="#8" y="15.197"/><use xlink:href="#9" y="17.368"/><use xlink:href="#10" y="19.539"/><use xlink:href="#11" y="21.71"/><use xlink:href="#12" y="23.881"/><use xlink:href="#13" y="26.052"/></svg><svg x="720"><use xlink:href="#a"/><use xlink:href="#b" x="-.004" y="30.369"/><use xlink:href="#1"/><use xlink:href="#2" y="2.171"/><use xlink:href="#3" y="4.342"/><use xlink:href="#4" y="6.513"/><use xlink:href="#5" y="8.684"/><use xlink:href="#6" y="10.855"/><use xlink:href="#7" y="13.026"/><use xlink:href="#8" y="15.197"/><use xlink:href="#9" y="17.368"/><use xlink:href="#10" y="19.539"/><use xlink:href="#11" y="21.71"/><use xlink:href="#12" y="23.881"/><use xlink:href="#13" y="26.052"/><use xlink:href="#14" y="28.223"/></svg><svg x="800"><use xlink:href="#a"/><use xlink:href="#b" x="-.004" y="32.54"/><use xlink:href="#1"/><use xlink:href="#2" y="2.171"/><use xlink:href="#3" y="4.342"/><use xlink:href="#4" y="6.513"/><use xlink:href="#5" y="8.684"/><use xlink:href="#6" y="10.855"/><use xlink:href="#7" y="13.026"/><use xlink:href="#8" y="15.197"/><use xlink:href="#9" y="17.368"/><use xlink:href="#10" y="19.539"/><use xlink:href="#11" y="21.71"/><use xlink:href="#12" y="23.881"/><use xlink:href="#13" y="26.052"/><use xlink:href="#14" y="28.223"/><use xlink:href="#15" y="30.394"/></svg><svg x="880"><use xlink:href="#a"/><use xlink:href="#b" x="-.004" y="34.711"/><use xlink:href="#1"/><use xlink:href="#2" y="2.171"/><use xlink:href="#3" y="4.342"/><use xlink:href="#4" y="6.513"/><use xlink:href="#5" y="8.684"/><use xlink:href="#6" y="10.855"/><use xlink:href="#7" y="13.026"/><use xlink:href="#8" y="15.197"/><use xlink:href="#9" y="17.368"/><use xlink:href="#10" y="19.539"/><use xlink:href="#11" y="21.71"/><use xlink:href="#12" y="23.881"/><use xlink:href="#13" y="26.052"/><use xlink:href="#14" y="28.223"/><use xlink:href="#15" y="30.394"/><use xlink:href="#16" y="32.565"/></svg><svg x="960"><use xlink:href="#a"/><use xlink:href="#b" x="-.004" y="36.882"/><use xlink:href="#1"/><use xlink:href="#2" y="2.171"/><use xlink:href="#3" y="4.342"/><use xlink:href="#4" y="6.513"/><use xlink:href="#5" y="8.684"/><use xlink:href="#6" y="10.855"/><use xlink:href="#7" y="13.026"/><use xlink:href="#8" y="15.197"/><use xlink:href="#9" y="17.368"/><use xlink:href="#10" y="19.539"/><use xlink:href="#11" y="21.71"/><use xlink:href="#12" y="23.881"/><use xlink:href="#13" y="26.052"/><use xlink:href="#14" y="28.223"/><use xlink:href="#15" y="30.394"/><use xlink:href="#16" y="32.565"/><use xlink:href="#17" y="34.736"/></svg><svg x="1040"><use xlink:href="#a"/><use xlink:href="#b" x="-.004" y="39.053"/><use xlink:href="#1"/><use xlink:href="#2" y="2.171"/><use xlink:href="#3" y="4.342"/><use xlink:href="#4" y="6.513"/><use xlink:href="#5" y="8.684"/><use xlink:href="#6" y="10.855"/><use xlink:href="#7" y="13.026"/><use xlink:href="#8" y="15.197"/><use xlink:href="#9" y="17.368"/><use xlink:href="#10" y="19.539"/><use xlink:href="#11" y="21.71"/><use xlink:href="#12" y="23.881"/><use xlink:href="#13" y="26.052"/><use xlink:href="#14" y="28.223"/><use xlink:href="#15" y="30.394"/><use xlink:href="#16" y="32.565"/><use xlink:href="#17" y="34.736"/><use xlink:href="#18" y="36.907"/></svg><svg x="1120"><use xlink:href="#a"/><use xlink:href="#b" x="-.004" y="41.224"/><use xlink:href="#1"/><use xlink:href="#2" y="2.171"/><use xlink:href="#3" y="4.342"/><use xlink:href="#4" y="6.513"/><use xlink:href="#5" y="8.684"/><use xlink:href="#6" y="10.855"/><use xlink:href="#7" y="13.026"/><use xlink:href="#8" y="15.197"/><use xlink:href="#9" y="17.368"/><use xlink:href="#10" y="19.539"/><use xlink:href="#11" y="21.71"/><use xlink:href="#12" y="23.881"/><use xlink:href="#13" y="26.052"/><use xlink:href="#14" y="28.223"/><use xlink:href="#15" y="30.394"/><use xlink:href="#16" y="32.565"/><use xlink:href="#17" y="34.736"/><use xlink:href="#18" y="36.907"/><use xlink:href="#19" y="39.078"/></svg><svg x="1200"><use xlink:href="#a"/><use xlink:href="#b" x="-.004" y="43.395"/><use xlink:href="#1"/><use xlink:href="#2" y="2.171"/><use xlink:href="#3" y="4.342"/><use xlink:href="#4" y="6.513"/><use xlink:href="#5" y="8.684"/><use xlink:href="#6" y="10.855"/><use xlink:href="#7" y="13.026"/><use xlink:href="#8" y="15.197"/><use xlink:href="#9" y="17.368"/><use xlink:href="#10" y="19.539"/><use xlink:href="#11" y="21.71"/><use xlink:href="#12" y="23.881"/><use xlink:href="#13" y="26.052"/><use xlink:href="#14" y="28.223"/><use xlink:href="#15" y="30.394"/><use xlink:href="#16" y="32.565"/><use xlink:href="#17" y="34.736"/><use xlink:href="#18" y="36.907"/><use xlink:href="#19" y="39.078"/><use xlink:href="#20" y="41.249"/></svg><svg x="1280"><use xlink:href="#a"/><use xlink:href="#b" x="-.004" y="45.566"/><use xlink:href="#1"/><use xlink:href="#2" y="2.171"/><use xlink:href="#3" y="4.342"/><use xlink:href="#4" y="6.513"/><use xlink:href="#5" y="8.684"/><use xlink:href="#6" y="10.855"/><use xlink:href="#7" y="13.026"/><use xlink:href="#8" y="15.197"/><use xlink:href="#9" y="17.368"/><use xlink:href="#10" y="19.539"/><use xlink:href="#11" y="21.71"/><use xlink:href="#12" y="23.881"/><use xlink:href="#13" y="26.052"/><use xlink:href="#14" y="28.223"/><use xlink:href="#15" y="30.394"/><use xlink:href="#16" y="32.565"/><use xlink:href="#17" y="34.736"/><use xlink:href="#18" y="36.907"/><use xlink:href="#19" y="39.078"/><use xlink:href="#20" y="41.249"/><use xlink:href="#21" y="43.42"/></svg><svg x="1360"><use xlink:href="#a"/><use xlink:href="#b" x="-.004" y="52.079"/><use xlink:href="#2"/><use xlink:href="#3" y="2.171"/><use xlink:href="#4" y="4.342"/><use xlink:href="#5" y="6.513"/><use xlink:href="#6" y="8.684"/><use xlink:href="#7" y="10.855"/><use xlink:href="#8" y="13.026"/><use xlink:href="#9" y="15.197"/><use xlink:href="#10" y="17.368"/><use xlink:href="#11" y="19.539"/><use xlink:href="#12" y="21.71"/><use xlink:href="#13" y="23.881"/><use xlink:href="#14" y="26.052"/><use xlink:href="#15" y="28.223"/><use xlink:href="#16" y="30.394"/><use xlink:href="#17" y="32.565"/><use xlink:href="#18" y="34.736"/><use xlink:href="#19" y="36.907"/><use xlink:href="#20" y="39.078"/><use xlink:href="#21" y="41.249"/><use xlink:href="#22" y="43.42"/><use xlink:href="#23" y="45.591"/><use xlink:href="#24" y="47.762"/><use xlink:href="#25" y="49.933"/></svg><svg x="1440"><use xlink:href="#a"/><use xlink:href="#b" x="-.004" y="52.079"/><use xlink:href="#3"/><use xlink:href="#4" y="2.171"/><use xlink:href="#5" y="4.342"/><use xlink:href="#6" y="6.513"/><use xlink:href="#7" y="8.684"/><use xlink:href="#8" y="10.855"/><use xlink:href="#9" y="13.026"/><use xlink:href="#10" y="15.197"/><use xlink:href="#11" y="17.368"/><use xlink:href="#12" y="19.539"/><use xlink:href="#13" y="21.71"/><use xlink:href="#14" y="23.881"/><use xlink:href="#15" y="26.052"/><use xlink:href="#16" y="28.223"/><use xlink:href="#17" y="30.394"/><use xlink:href="#18" y="32.565"/><use xlink:href="#19" y="34.736"/><use xlink:href="#20" y="36.907"/><use xlink:href="#21" y="39.078"/><use xlink:href="#22" y="41.249"/><use xlink:href="#23" y="43.42"/><use xlink:href="#24" y="45.591"/><use xlink:href="#25" y="47.762"/><text y="51.603" class="h">└─────────────────────────────────────────────────────────────┘</text></svg></svg></g></g></svg></svg>