<svg xmlns="http://www.w3.org/2000/svg" xmlns:xlink="http://www.w3.org/1999/xlink" width="840" height="581.04"><rect width="840" height="581.04" rx="5" ry="5" class="a"/><svg y="0%" x="0%"><circle cx="20" cy="20" r="6" fill="#ff5f58"/><circle cx="40" cy="20" r="6" fill="#ffbd2e"/><circle cx="60" cy="20" r="6" fill="#18c132"/></svg><svg height="521.04" viewBox="0 0 80 52.104" width="800" x="15" xmlns="http://www.w3.org/2000/svg" xmlns:xlink="http://www.w3.org/1999/xlink" y="50"><style>@keyframes l{0%{transform:translateX(0)}.13%{transform:translateX(-80px)}5%{transform:translateX(-160px)}14.61%{transform:translateX(-320px)}28.98%{transform:translateX(-400px)}38.56%{transform:translateX(-480px)}43.34%{transform:translateX(-560px)}48.24%{transform:translateX(-640px)}52.07%{transform:translateX(-720px)}55.9%{transform:translateX(-800px)}55.91%{transform:translateX(-880px)}59.75%{transform:translateX(-1040px)}63.58%{transform:translateX(-1120px)}68.46%{transform:translateX(-1200px)}78.04%{transform:translateX(-1280px)}87.63%{transform:translateX(-1360px)}92.55%{transform:translateX(-1440px)}99.97%{transform:translateX(-1600px)}99.99%{transform:translateX(-1680px)}to{transform:translateX(-1760px)}}.a{fill:#282d35}.f{fill:#66c2cd;font-weight:700}.f,.g,.h,.i{white-space:pre}.g{fill:#71bef2;font-weight:700}.h,.i{fill:#b9c0cb}.i{fill:#a8cc8c;font-weight:700}</style><g font-family="Monaco,Consolas,Menlo,'Bitstream Vera Sans Mono','Powerline Symbols',monospace" font-size="1.67"><defs><symbol id="1"><text y="1.67" class="f">$</text><text x="2.004" y="1.67" class="f">cd</text><text x="5.01" y="1.67" class="f">/home/umesh/Sentinent_os</text></symbol><symbol id="2"><text y="1.67" class="f">$</text><text x="2.004" y="1.67" class="f">bin/sentctl</text><text x="14.028" y="1.67" class="f">package</text><text x="22.044" y="1.67" class="f">list</text></symbol><symbol id="3"><text y="1.67" class="g">[SentientOS</text><text x="12.024" y="1.67" class="g">Universal</text><text x="22.044" y="1.67" class="g">Package</text><text x="30.06" y="1.67" class="g">Manager]</text><text x="39.078" y="1.67" class="h">Installed</text><text x="49.098" y="1.67" class="h">packages:</text></symbol><symbol id="4"><text y="1.67" class="h">┌───────────────┬────────────┬──────────────┬────────────────────┐</text></symbol><symbol id="5"><text y="1.67" class="h">│</text><text x="2.004" y="1.67" class="h">ECOSYSTEM</text><text x="16.032" y="1.67" class="h">│</text><text x="18.036" y="1.67" class="h">PACKAGE</text><text x="29.058" y="1.67" class="h">│</text><text x="31.062" y="1.67" class="h">VERSION</text><text x="44.088" y="1.67" class="h">│</text><text x="46.092" y="1.67" class="h">LOCATION</text><text x="65.13" y="1.67" class="h">│</text></symbol><symbol id="6"><text y="1.67" class="h">├───────────────┼────────────┼──────────────┼────────────────────┤</text></symbol><symbol id="7"><text y="1.67" class="h">│</text><text x="2.004" y="1.67" class="h">npm</text><text x="16.032" y="1.67" class="h">│</text><text x="18.036" y="1.67" class="h">express</text><text x="29.058" y="1.67" class="h">│</text><text x="31.062" y="1.67" class="h">4.18.2</text><text x="44.088" y="1.67" class="h">│</text><text x="46.092" y="1.67" class="h">projects/api-gate~</text><text x="65.13" y="1.67" class="h">│</text></symbol><symbol id="8"><text y="1.67" class="h">│</text><text x="2.004" y="1.67" class="h">npm</text><text x="16.032" y="1.67" class="h">│</text><text x="18.036" y="1.67" class="h">socket.io</text><text x="29.058" y="1.67" class="h">│</text><text x="31.062" y="1.67" class="h">4.7.2</text><text x="44.088" y="1.67" class="h">│</text><text x="46.092" y="1.67" class="h">projects/api-gate~</text><text x="65.13" y="1.67" class="h">│</text></symbol><symbol id="9"><text y="1.67" class="h">│</text><text x="2.004" y="1.67" class="h">python</text><text x="16.032" y="1.67" class="h">│</text><text x="18.036" y="1.67" class="h">flask</text><text x="29.058" y="1.67" class="h">│</text><text x="31.062" y="1.67" class="h">2.3.3</text><text x="44.088" y="1.67" class="h">│</text><text x="46.092" y="1.67" class="h">projects/data-pro~</text><text x="65.13" y="1.67" class="h">│</text></symbol><symbol id="10"><text y="1.67" class="h">│</text><text x="2.004" y="1.67" class="h">python</text><text x="16.032" y="1.67" class="h">│</text><text x="18.036" y="1.67" class="h">pandas</text><text x="29.058" y="1.67" class="h">│</text><text x="31.062" y="1.67" class="h">2.1.0</text><text x="44.088" y="1.67" class="h">│</text><text x="46.092" y="1.67" class="h">projects/data-pro~</text><text x="65.13" y="1.67" class="h">│</text></symbol><symbol id="11"><text y="1.67" class="h">│</text><text x="2.004" y="1.67" class="h">rust</text><text x="16.032" y="1.67" class="h">│</text><text x="18.036" y="1.67" class="h">tokio</text><text x="29.058" y="1.67" class="h">│</text><text x="31.062" y="1.67" class="h">1.28.1</text><text x="44.088" y="1.67" class="h">│</text><text x="46.092" y="1.67" class="h">projects/sync-ser~</text><text x="65.13" y="1.67" class="h">│</text></symbol><symbol id="12"><text y="1.67" class="h">│</text><text x="2.004" y="1.67" class="h">go</text><text x="16.032" y="1.67" class="h">│</text><text x="18.036" y="1.67" class="h">gin</text><text x="29.058" y="1.67" class="h">│</text><text x="31.062" y="1.67" class="h">1.9.1</text><text x="44.088" y="1.67" class="h">│</text><text x="46.092" y="1.67" class="h">projects/auth-ser~</text><text x="65.13" y="1.67" class="h">│</text></symbol><symbol id="13"><text y="1.67" class="h">│</text><text x="2.004" y="1.67" class="h">java</text><text x="16.032" y="1.67" class="h">│</text><text x="18.036" y="1.67" class="h">spring-boot│</text><text x="31.062" y="1.67" class="h">3.1.2</text><text x="44.088" y="1.67" class="h">│</text><text x="46.092" y="1.67" class="h">projects/payment-~</text><text x="65.13" y="1.67" class="h">│</text></symbol><symbol id="14"><text y="1.67" class="h">└───────────────┴────────────┴──────────────┴────────────────────┘</text></symbol><symbol id="15"><text y="1.67" class="f">$</text><text x="2.004" y="1.67" class="f">bin/sentctl</text><text x="14.028" y="1.67" class="f">package</text><text x="22.044" y="1.67" class="f">install</text><text x="30.06" y="1.67" class="f">python</text><text x="37.074" y="1.67" class="f">--path</text><text x="44.088" y="1.67" class="f">projects/analytics</text></symbol><symbol id="16"><text y="1.67" class="g">[SentientOS</text><text x="12.024" y="1.67" class="g">Universal</text><text x="22.044" y="1.67" class="g">Package</text><text x="30.06" y="1.67" class="g">Manager]</text><text x="39.078" y="1.67" class="h">Installing</text><text x="50.1" y="1.67" class="h">packages</text><text x="59.118" y="1.67" class="h">for</text><text x="63.126" y="1.67" class="h">Python</text><text x="70.14" y="1.67" class="h">project...</text></symbol><symbol id="17"><text y="1.67" class="g">[SentientOS</text><text x="12.024" y="1.67" class="g">Universal</text><text x="22.044" y="1.67" class="g">Package</text><text x="30.06" y="1.67" class="g">Manager]</text><text x="39.078" y="1.67" class="h">Detected</text><text x="48.096" y="1.67" class="h">requirements.txt</text></symbol><symbol id="18"><text y="1.67" class="g">[SentientOS</text><text x="12.024" y="1.67" class="g">Universal</text><text x="22.044" y="1.67" class="g">Package</text><text x="30.06" y="1.67" class="g">Manager]</text><text x="39.078" y="1.67" class="h">Installing</text><text x="50.1" y="1.67" class="h">numpy==1.24.3</text></symbol><symbol id="19"><text y="1.67" class="g">[SentientOS</text><text x="12.024" y="1.67" class="g">Universal</text><text x="22.044" y="1.67" class="g">Package</text><text x="30.06" y="1.67" class="g">Manager]</text><text x="39.078" y="1.67" class="h">Installing</text><text x="50.1" y="1.67" class="h">matplotlib==3.7.2</text></symbol><symbol id="20"><text y="1.67" class="g">[SentientOS</text><text x="12.024" y="1.67" class="g">Universal</text><text x="22.044" y="1.67" class="g">Package</text><text x="30.06" y="1.67" class="g">Manager]</text><text x="39.078" y="1.67" class="h">Installing</text><text x="50.1" y="1.67" class="h">scikit-learn==1.3.0</text></symbol><symbol id="21"><text y="1.67" class="g">[SentientOS</text><text x="12.024" y="1.67" class="g">Universal</text><text x="22.044" y="1.67" class="g">Package</text><text x="30.06" y="1.67" class="g">Manager]</text><text x="39.078" y="1.67" class="h">Installing</text><text x="50.1" y="1.67" class="h">pandas==2.1.0</text></symbol><symbol id="22"><text y="1.67" class="g">[SentientOS</text><text x="12.024" y="1.67" class="g">Universal</text><text x="22.044" y="1.67" class="g">Package</text><text x="30.06" y="1.67" class="g">Manager]</text><text x="39.078" y="1.67" class="h">Configuring</text><text x="51.102" y="1.67" class="h">package</text><text x="59.118" y="1.67" class="h">interoperability...</text></symbol><symbol id="23"><text y="1.67" class="i">✓</text><text x="2.004" y="1.67" class="i">All</text><text x="6.012" y="1.67" class="i">packages</text><text x="15.03" y="1.67" class="i">installed</text><text x="25.05" y="1.67" class="i">successfully</text></symbol><symbol id="24"><text y="1.67" class="f">$</text><text x="2.004" y="1.67" class="f">bin/sentctl</text><text x="14.028" y="1.67" class="f">package</text><text x="22.044" y="1.67" class="f">verify</text><text x="29.058" y="1.67" class="f">projects/analytics</text></symbol><symbol id="25"><text y="1.67" class="g">[SentientOS</text><text x="12.024" y="1.67" class="g">Package</text><text x="20.04" y="1.67" class="g">Verifier]</text><text x="30.06" y="1.67" class="h">Verifying</text><text x="40.08" y="1.67" class="h">package</text><text x="48.096" y="1.67" class="h">integrity...</text></symbol><symbol id="26"><text y="1.67" class="g">[SentientOS</text><text x="12.024" y="1.67" class="g">Package</text><text x="20.04" y="1.67" class="g">Verifier]</text><text x="30.06" y="1.67" class="h">Checking</text><text x="39.078" y="1.67" class="h">for</text><text x="43.086" y="1.67" class="h">known</text><text x="49.098" y="1.67" class="h">vulnerabilities...</text></symbol><symbol id="27"><text y="1.67" class="i">✓</text><text x="2.004" y="1.67" class="i">No</text><text x="5.01" y="1.67" class="i">vulnerabilities</text><text x="21.042" y="1.67" class="i">found</text></symbol><symbol id="28"><text y="1.67" class="i">✓</text><text x="2.004" y="1.67" class="i">All</text><text x="6.012" y="1.67" class="i">packages</text><text x="15.03" y="1.67" class="i">verified</text></symbol><symbol id="a"><path fill="transparent" d="M0 0h80v25H0z"/></symbol><symbol id="b"><path fill="#6f7683" d="M0 0h1.102v2.171H0z"/></symbol></defs><path class="a" d="M0 0h80v52.104H0z"/><g style="animation-duration:20.946944s;animation-iteration-count:infinite;animation-name:l;animation-timing-function:steps(1,end)"><svg width="1840"><svg><use xlink:href="#a"/><use xlink:href="#b" x="-.004"/></svg><svg x="80"><use xlink:href="#a"/><use xlink:href="#b" x="-.004" y="2.146"/><use xlink:href="#1"/></svg><svg x="160"><use xlink:href="#a"/><use xlink:href="#b" x="-.004" y="4.317"/><use xlink:href="#1"/><use xlink:href="#2" y="2.171"/></svg><svg x="240"><use xlink:href="#a"/><use xlink:href="#b" x="4.996" y="26.027"/><use xlink:href="#1"/><use xlink:href="#2" y="2.171"/><use xlink:href="#3" y="4.342"/><use xlink:href="#4" y="6.513"/><use xlink:href="#5" y="8.684"/><use xlink:href="#6" y="10.855"/><use xlink:href="#7" y="13.026"/><use xlink:href="#8" y="15.197"/><use xlink:href="#9" y="17.368"/><use xlink:href="#10" y="19.539"/><use xlink:href="#11" y="21.71"/><use xlink:href="#12" y="23.881"/><text y="27.722" class="h">│</text><text x="2.004" y="27.722" class="h">jav</text></svg><svg x="320"><use xlink:href="#a"/><use xlink:href="#b" x="-.004" y="30.369"/><use xlink:href="#1"/><use xlink:href="#2" y="2.171"/><use xlink:href="#3" y="4.342"/><use xlink:href="#4" y="6.513"/><use xlink:href="#5" y="8.684"/><use xlink:href="#6" y="10.855"/><use xlink:href="#7" y="13.026"/><use xlink:href="#8" y="15.197"/><use xlink:href="#9" y="17.368"/><use xlink:href="#10" y="19.539"/><use xlink:href="#11" y="21.71"/><use xlink:href="#12" y="23.881"/><use xlink:href="#13" y="26.052"/><use xlink:href="#14" y="28.223"/></svg><svg x="400"><use xlink:href="#a"/><use xlink:href="#b" x="-.004" y="32.54"/><use xlink:href="#1"/><use xlink:href="#2" y="2.171"/><use xlink:href="#3" y="4.342"/><use xlink:href="#4" y="6.513"/><use xlink:href="#5" y="8.684"/><use xlink:href="#6" y="10.855"/><use xlink:href="#7" y="13.026"/><use xlink:href="#8" y="15.197"/><use xlink:href="#9" y="17.368"/><use xlink:href="#10" y="19.539"/><use xlink:href="#11" y="21.71"/><use xlink:href="#12" y="23.881"/><use xlink:href="#13" y="26.052"/><use xlink:href="#14" y="28.223"/><use xlink:href="#15" y="30.394"/></svg><svg x="480"><use xlink:href="#a"/><use xlink:href="#b" x="-.004" y="34.711"/><use xlink:href="#1"/><use xlink:href="#2" y="2.171"/><use xlink:href="#3" y="4.342"/><use xlink:href="#4" y="6.513"/><use xlink:href="#5" y="8.684"/><use xlink:href="#6" y="10.855"/><use xlink:href="#7" y="13.026"/><use xlink:href="#8" y="15.197"/><use xlink:href="#9" y="17.368"/><use xlink:href="#10" y="19.539"/><use xlink:href="#11" y="21.71"/><use xlink:href="#12" y="23.881"/><use xlink:href="#13" y="26.052"/><use xlink:href="#14" y="28.223"/><use xlink:href="#15" y="30.394"/><use xlink:href="#16" y="32.565"/></svg><svg x="560"><use xlink:href="#a"/><use xlink:href="#b" x="-.004" y="36.882"/><use xlink:href="#1"/><use xlink:href="#2" y="2.171"/><use xlink:href="#3" y="4.342"/><use xlink:href="#4" y="6.513"/><use xlink:href="#5" y="8.684"/><use xlink:href="#6" y="10.855"/><use xlink:href="#7" y="13.026"/><use xlink:href="#8" y="15.197"/><use xlink:href="#9" y="17.368"/><use xlink:href="#10" y="19.539"/><use xlink:href="#11" y="21.71"/><use xlink:href="#12" y="23.881"/><use xlink:href="#13" y="26.052"/><use xlink:href="#14" y="28.223"/><use xlink:href="#15" y="30.394"/><use xlink:href="#16" y="32.565"/><use xlink:href="#17" y="34.736"/></svg><svg x="640"><use xlink:href="#a"/><use xlink:href="#b" x="-.004" y="39.053"/><use xlink:href="#1"/><use xlink:href="#2" y="2.171"/><use xlink:href="#3" y="4.342"/><use xlink:href="#4" y="6.513"/><use xlink:href="#5" y="8.684"/><use xlink:href="#6" y="10.855"/><use xlink:href="#7" y="13.026"/><use xlink:href="#8" y="15.197"/><use xlink:href="#9" y="17.368"/><use xlink:href="#10" y="19.539"/><use xlink:href="#11" y="21.71"/><use xlink:href="#12" y="23.881"/><use xlink:href="#13" y="26.052"/><use xlink:href="#14" y="28.223"/><use xlink:href="#15" y="30.394"/><use xlink:href="#16" y="32.565"/><use xlink:href="#17" y="34.736"/><use xlink:href="#18" y="36.907"/></svg><svg x="720"><use xlink:href="#a"/><use xlink:href="#b" x="-.004" y="41.224"/><use xlink:href="#1"/><use xlink:href="#2" y="2.171"/><use xlink:href="#3" y="4.342"/><use xlink:href="#4" y="6.513"/><use xlink:href="#5" y="8.684"/><use xlink:href="#6" y="10.855"/><use xlink:href="#7" y="13.026"/><use xlink:href="#8" y="15.197"/><use xlink:href="#9" y="17.368"/><use xlink:href="#10" y="19.539"/><use xlink:href="#11" y="21.71"/><use xlink:href="#12" y="23.881"/><use xlink:href="#13" y="26.052"/><use xlink:href="#14" y="28.223"/><use xlink:href="#15" y="30.394"/><use xlink:href="#16" y="32.565"/><use xlink:href="#17" y="34.736"/><use xlink:href="#18" y="36.907"/><use xlink:href="#19" y="39.078"/></svg><svg x="800"><use xlink:href="#a"/><use xlink:href="#b" x="68.996" y="41.224"/><use xlink:href="#1"/><use xlink:href="#2" y="2.171"/><use xlink:href="#3" y="4.342"/><use xlink:href="#4" y="6.513"/><use xlink:href="#5" y="8.684"/><use xlink:href="#6" y="10.855"/><use xlink:href="#7" y="13.026"/><use xlink:href="#8" y="15.197"/><use xlink:href="#9" y="17.368"/><use xlink:href="#10" y="19.539"/><use xlink:href="#11" y="21.71"/><use xlink:href="#12" y="23.881"/><use xlink:href="#13" y="26.052"/><use xlink:href="#14" y="28.223"/><use xlink:href="#15" y="30.394"/><use xlink:href="#16" y="32.565"/><use xlink:href="#17" y="34.736"/><use xlink:href="#18" y="36.907"/><use xlink:href="#19" y="39.078"/><use xlink:href="#20" y="41.249"/></svg><svg x="880"><use xlink:href="#a"/><use xlink:href="#b" x="-.004" y="43.395"/><use xlink:href="#1"/><use xlink:href="#2" y="2.171"/><use xlink:href="#3" y="4.342"/><use xlink:href="#4" y="6.513"/><use xlink:href="#5" y="8.684"/><use xlink:href="#6" y="10.855"/><use xlink:href="#7" y="13.026"/><use xlink:href="#8" y="15.197"/><use xlink:href="#9" y="17.368"/><use xlink:href="#10" y="19.539"/><use xlink:href="#11" y="21.71"/><use xlink:href="#12" y="23.881"/><use xlink:href="#13" y="26.052"/><use xlink:href="#14" y="28.223"/><use xlink:href="#15" y="30.394"/><use xlink:href="#16" y="32.565"/><use xlink:href="#17" y="34.736"/><use xlink:href="#18" y="36.907"/><use xlink:href="#19" y="39.078"/><use xlink:href="#20" y="41.249"/></svg><svg x="960"><use xlink:href="#a"/><use xlink:href="#b" x="62.996" y="43.395"/><use xlink:href="#1"/><use xlink:href="#2" y="2.171"/><use xlink:href="#3" y="4.342"/><use xlink:href="#4" y="6.513"/><use xlink:href="#5" y="8.684"/><use xlink:href="#6" y="10.855"/><use xlink:href="#7" y="13.026"/><use xlink:href="#8" y="15.197"/><use xlink:href="#9" y="17.368"/><use xlink:href="#10" y="19.539"/><use xlink:href="#11" y="21.71"/><use xlink:href="#12" y="23.881"/><use xlink:href="#13" y="26.052"/><use xlink:href="#14" y="28.223"/><use xlink:href="#15" y="30.394"/><use xlink:href="#16" y="32.565"/><use xlink:href="#17" y="34.736"/><use xlink:href="#18" y="36.907"/><use xlink:href="#19" y="39.078"/><use xlink:href="#20" y="41.249"/><use xlink:href="#21" y="43.42"/></svg><svg x="1040"><use xlink:href="#a"/><use xlink:href="#b" x="-.004" y="45.566"/><use xlink:href="#1"/><use xlink:href="#2" y="2.171"/><use xlink:href="#3" y="4.342"/><use xlink:href="#4" y="6.513"/><use xlink:href="#5" y="8.684"/><use xlink:href="#6" y="10.855"/><use xlink:href="#7" y="13.026"/><use xlink:href="#8" y="15.197"/><use xlink:href="#9" y="17.368"/><use xlink:href="#10" y="19.539"/><use xlink:href="#11" y="21.71"/><use xlink:href="#12" y="23.881"/><use xlink:href="#13" y="26.052"/><use xlink:href="#14" y="28.223"/><use xlink:href="#15" y="30.394"/><use xlink:href="#16" y="32.565"/><use xlink:href="#17" y="34.736"/><use xlink:href="#18" y="36.907"/><use xlink:href="#19" y="39.078"/><use xlink:href="#20" y="41.249"/><use xlink:href="#21" y="43.42"/></svg><svg x="1120"><use xlink:href="#a"/><use xlink:href="#b" x="-.004" y="47.737"/><use xlink:href="#1"/><use xlink:href="#2" y="2.171"/><use xlink:href="#3" y="4.342"/><use xlink:href="#4" y="6.513"/><use xlink:href="#5" y="8.684"/><use xlink:href="#6" y="10.855"/><use xlink:href="#7" y="13.026"/><use xlink:href="#8" y="15.197"/><use xlink:href="#9" y="17.368"/><use xlink:href="#10" y="19.539"/><use xlink:href="#11" y="21.71"/><use xlink:href="#12" y="23.881"/><use xlink:href="#13" y="26.052"/><use xlink:href="#14" y="28.223"/><use xlink:href="#15" y="30.394"/><use xlink:href="#16" y="32.565"/><use xlink:href="#17" y="34.736"/><use xlink:href="#18" y="36.907"/><use xlink:href="#19" y="39.078"/><use xlink:href="#20" y="41.249"/><use xlink:href="#21" y="43.42"/><use xlink:href="#22" y="45.591"/></svg><svg x="1200"><use xlink:href="#a"/><use xlink:href="#b" x="-.004" y="49.908"/><use xlink:href="#1"/><use xlink:href="#2" y="2.171"/><use xlink:href="#3" y="4.342"/><use xlink:href="#4" y="6.513"/><use xlink:href="#5" y="8.684"/><use xlink:href="#6" y="10.855"/><use xlink:href="#7" y="13.026"/><use xlink:href="#8" y="15.197"/><use xlink:href="#9" y="17.368"/><use xlink:href="#10" y="19.539"/><use xlink:href="#11" y="21.71"/><use xlink:href="#12" y="23.881"/><use xlink:href="#13" y="26.052"/><use xlink:href="#14" y="28.223"/><use xlink:href="#15" y="30.394"/><use xlink:href="#16" y="32.565"/><use xlink:href="#17" y="34.736"/><use xlink:href="#18" y="36.907"/><use xlink:href="#19" y="39.078"/><use xlink:href="#20" y="41.249"/><use xlink:href="#21" y="43.42"/><use xlink:href="#22" y="45.591"/><use xlink:href="#23" y="47.762"/></svg><svg x="1280"><use xlink:href="#a"/><use xlink:href="#b" x="-.004" y="52.079"/><use xlink:href="#1"/><use xlink:href="#2" y="2.171"/><use xlink:href="#3" y="4.342"/><use xlink:href="#4" y="6.513"/><use xlink:href="#5" y="8.684"/><use xlink:href="#6" y="10.855"/><use xlink:href="#7" y="13.026"/><use xlink:href="#8" y="15.197"/><use xlink:href="#9" y="17.368"/><use xlink:href="#10" y="19.539"/><use xlink:href="#11" y="21.71"/><use xlink:href="#12" y="23.881"/><use xlink:href="#13" y="26.052"/><use xlink:href="#14" y="28.223"/><use xlink:href="#15" y="30.394"/><use xlink:href="#16" y="32.565"/><use xlink:href="#17" y="34.736"/><use xlink:href="#18" y="36.907"/><use xlink:href="#19" y="39.078"/><use xlink:href="#20" y="41.249"/><use xlink:href="#21" y="43.42"/><use xlink:href="#22" y="45.591"/><use xlink:href="#23" y="47.762"/><use xlink:href="#24" y="49.933"/></svg><svg x="1360"><use xlink:href="#a"/><use xlink:href="#b" x="-.004" y="52.079"/><use xlink:href="#2"/><use xlink:href="#3" y="2.171"/><use xlink:href="#4" y="4.342"/><use xlink:href="#5" y="6.513"/><use xlink:href="#6" y="8.684"/><use xlink:href="#7" y="10.855"/><use xlink:href="#8" y="13.026"/><use xlink:href="#9" y="15.197"/><use xlink:href="#10" y="17.368"/><use xlink:href="#11" y="19.539"/><use xlink:href="#12" y="21.71"/><use xlink:href="#13" y="23.881"/><use xlink:href="#14" y="26.052"/><use xlink:href="#15" y="28.223"/><use xlink:href="#16" y="30.394"/><use xlink:href="#17" y="32.565"/><use xlink:href="#18" y="34.736"/><use xlink:href="#19" y="36.907"/><use xlink:href="#20" y="39.078"/><use xlink:href="#21" y="41.249"/><use xlink:href="#22" y="43.42"/><use xlink:href="#23" y="45.591"/><use xlink:href="#24" y="47.762"/><use xlink:href="#25" y="49.933"/></svg><svg x="1440"><use xlink:href="#a"/><use xlink:href="#b" x="-.004" y="52.079"/><use xlink:href="#3"/><use xlink:href="#4" y="2.171"/><use xlink:href="#5" y="4.342"/><use xlink:href="#6" y="6.513"/><use xlink:href="#7" y="8.684"/><use xlink:href="#8" y="10.855"/><use xlink:href="#9" y="13.026"/><use xlink:href="#10" y="15.197"/><use xlink:href="#11" y="17.368"/><use xlink:href="#12" y="19.539"/><use xlink:href="#13" y="21.71"/><use xlink:href="#14" y="23.881"/><use xlink:href="#15" y="26.052"/><use xlink:href="#16" y="28.223"/><use xlink:href="#17" y="30.394"/><use xlink:href="#18" y="32.565"/><use xlink:href="#19" y="34.736"/><use xlink:href="#20" y="36.907"/><use xlink:href="#21" y="39.078"/><use xlink:href="#22" y="41.249"/><use xlink:href="#23" y="43.42"/><use xlink:href="#24" y="45.591"/><use xlink:href="#25" y="47.762"/><use xlink:href="#26" y="49.933"/></svg><svg x="1520"><use xlink:href="#a"/><use xlink:href="#b" x="25.996" y="52.079"/><use xlink:href="#3"/><use xlink:href="#4" y="2.171"/><use xlink:href="#5" y="4.342"/><use xlink:href="#6" y="6.513"/><use xlink:href="#7" y="8.684"/><use xlink:href="#8" y="10.855"/><use xlink:href="#9" y="13.026"/><use xlink:href="#10" y="15.197"/><use xlink:href="#11" y="17.368"/><use xlink:href="#12" y="19.539"/><use xlink:href="#13" y="21.71"/><use xlink:href="#14" y="23.881"/><use xlink:href="#15" y="26.052"/><use xlink:href="#16" y="28.223"/><use xlink:href="#17" y="30.394"/><use xlink:href="#18" y="32.565"/><use xlink:href="#19" y="34.736"/><use xlink:href="#20" y="36.907"/><use xlink:href="#21" y="39.078"/><use xlink:href="#22" y="41.249"/><use xlink:href="#23" y="43.42"/><use xlink:href="#24" y="45.591"/><use xlink:href="#25" y="47.762"/><use xlink:href="#26" y="49.933"/><use xlink:href="#27" y="52.104"/></svg><svg x="1600"><use xlink:href="#a"/><use xlink:href="#b" x="-.004" y="52.079"/><use xlink:href="#4"/><use xlink:href="#5" y="2.171"/><use xlink:href="#6" y="4.342"/><use xlink:href="#7" y="6.513"/><use xlink:href="#8" y="8.684"/><use xlink:href="#9" y="10.855"/><use xlink:href="#10" y="13.026"/><use xlink:href="#11" y="15.197"/><use xlink:href="#12" y="17.368"/><use xlink:href="#13" y="19.539"/><use xlink:href="#14" y="21.71"/><use xlink:href="#15" y="23.881"/><use xlink:href="#16" y="26.052"/><use xlink:href="#17" y="28.223"/><use xlink:href="#18" y="30.394"/><use xlink:href="#19" y="32.565"/><use xlink:href="#20" y="34.736"/><use xlink:href="#21" y="36.907"/><use xlink:href="#22" y="39.078"/><use xlink:href="#23" y="41.249"/><use xlink:href="#24" y="43.42"/><use xlink:href="#25" y="45.591"/><use xlink:href="#26" y="47.762"/><use xlink:href="#27" y="49.933"/></svg><svg x="1680"><use xlink:href="#a"/><use xlink:href="#b" x="22.996" y="52.079"/><use xlink:href="#4"/><use xlink:href="#5" y="2.171"/><use xlink:href="#6" y="4.342"/><use xlink:href="#7" y="6.513"/><use xlink:href="#8" y="8.684"/><use xlink:href="#9" y="10.855"/><use xlink:href="#10" y="13.026"/><use xlink:href="#11" y="15.197"/><use xlink:href="#12" y="17.368"/><use xlink:href="#13" y="19.539"/><use xlink:href="#14" y="21.71"/><use xlink:href="#15" y="23.881"/><use xlink:href="#16" y="26.052"/><use xlink:href="#17" y="28.223"/><use xlink:href="#18" y="30.394"/><use xlink:href="#19" y="32.565"/><use xlink:href="#20" y="34.736"/><use xlink:href="#21" y="36.907"/><use xlink:href="#22" y="39.078"/><use xlink:href="#23" y="41.249"/><use xlink:href="#24" y="43.42"/><use xlink:href="#25" y="45.591"/><use xlink:href="#26" y="47.762"/><use xlink:href="#27" y="49.933"/><use xlink:href="#28" y="52.104"/></svg><svg x="1760"><use xlink:href="#a"/><use xlink:href="#b" x="-.004" y="52.079"/><use xlink:href="#5"/><use xlink:href="#6" y="2.171"/><use xlink:href="#7" y="4.342"/><use xlink:href="#8" y="6.513"/><use xlink:href="#9" y="8.684"/><use xlink:href="#10" y="10.855"/><use xlink:href="#11" y="13.026"/><use xlink:href="#12" y="15.197"/><use xlink:href="#13" y="17.368"/><use xlink:href="#14" y="19.539"/><use xlink:href="#15" y="21.71"/><use xlink:href="#16" y="23.881"/><use xlink:href="#17" y="26.052"/><use xlink:href="#18" y="28.223"/><use xlink:href="#19" y="30.394"/><use xlink:href="#20" y="32.565"/><use xlink:href="#21" y="34.736"/><use xlink:href="#22" y="36.907"/><use xlink:href="#23" y="39.078"/><use xlink:href="#24" y="41.249"/><use xlink:href="#25" y="43.42"/><use xlink:href="#26" y="45.591"/><use xlink:href="#27" y="47.762"/><use xlink:href="#28" y="49.933"/></svg></svg></g></g></svg></svg>