<svg xmlns="http://www.w3.org/2000/svg" xmlns:xlink="http://www.w3.org/1999/xlink" width="840" height="581.04"><rect width="840" height="581.04" rx="5" ry="5" class="a"/><svg y="0%" x="0%"><circle cx="20" cy="20" r="6" fill="#ff5f58"/><circle cx="40" cy="20" r="6" fill="#ffbd2e"/><circle cx="60" cy="20" r="6" fill="#18c132"/></svg><svg height="521.04" viewBox="0 0 80 52.104" width="800" x="15" xmlns="http://www.w3.org/2000/svg" xmlns:xlink="http://www.w3.org/1999/xlink" y="50"><style>@keyframes l{0%{transform:translateX(0)}.2%{transform:translateX(-160px)}7.6%{transform:translateX(-240px)}22.4%{transform:translateX(-320px)}29.8%{transform:translateX(-400px)}37.2%{transform:translateX(-480px)}48.2%{transform:translateX(-560px)}63%{transform:translateX(-720px)}77.9%{transform:translateX(-800px)}92.6%{transform:translateX(-880px)}to{transform:translateX(-1440px)}}.a{fill:#282d35}.f{fill:#66c2cd;font-weight:700}.f,.g,.h,.i{white-space:pre}.g{fill:#71bef2;font-weight:700}.h,.i{fill:#b9c0cb}.i{fill:#a8cc8c;font-weight:700}</style><g font-family="Monaco,Consolas,Menlo,'Bitstream Vera Sans Mono','Powerline Symbols',monospace" font-size="1.67"><defs><symbol id="1"><text y="1.67" class="f">$</text><text x="2.004" y="1.67" class="f">cd</text><text x="5.01" y="1.67" class="f">/home/umesh/Sentinent_os</text></symbol><symbol id="2"><text y="1.67" class="f">$</text><text x="2.004" y="1.67" class="f">bin/sentctl</text><text x="14.028" y="1.67" class="f">zk-verify</text><text x="24.048" y="1.67" class="f">projects/payment-gateway/contract.zk</text></symbol><symbol id="3"><text y="1.67" class="g">[SentientOS</text><text x="12.024" y="1.67" class="g">Zero-Knowledge</text><text x="27.054" y="1.67" class="g">Verifier]</text><text x="37.074" y="1.67" class="h">Analyzing</text><text x="47.094" y="1.67" class="h">contract...</text></symbol><symbol id="4"><text y="1.67" class="g">[SentientOS</text><text x="12.024" y="1.67" class="g">Zero-Knowledge</text><text x="27.054" y="1.67" class="g">Verifier]</text><text x="37.074" y="1.67" class="h">Reading</text><text x="45.09" y="1.67" class="h">schema</text><text x="52.104" y="1.67" class="h">definition...</text></symbol><symbol id="5"><text y="1.67" class="g">[SentientOS</text><text x="12.024" y="1.67" class="g">Zero-Knowledge</text><text x="27.054" y="1.67" class="g">Verifier]</text><text x="37.074" y="1.67" class="h">Generating</text><text x="48.096" y="1.67" class="h">verification</text><text x="61.122" y="1.67" class="h">circuit...</text></symbol><symbol id="6"><text y="1.67" class="g">[SentientOS</text><text x="12.024" y="1.67" class="g">Zero-Knowledge</text><text x="27.054" y="1.67" class="g">Verifier]</text><text x="37.074" y="1.67" class="h">Computing</text><text x="47.094" y="1.67" class="h">zero-knowledge</text><text x="62.124" y="1.67" class="h">proof...</text></symbol><symbol id="7"><text y="1.67" class="i">✓</text><text x="2.004" y="1.67" class="i">Zero-Knowledge</text><text x="17.034" y="1.67" class="i">verification</text><text x="30.06" y="1.67" class="i">successful</text></symbol><symbol id="8"><text y="1.67" class="i">✓</text><text x="2.004" y="1.67" class="i">Contract</text><text x="11.022" y="1.67" class="i">integrity</text><text x="21.042" y="1.67" class="i">verified</text><text x="30.06" y="1.67" class="i">without</text><text x="38.076" y="1.67" class="i">revealing</text><text x="48.096" y="1.67" class="i">proprietary</text><text x="60.12" y="1.67" class="i">logic</text></symbol><symbol id="9"><text y="1.67" class="i">✓</text><text x="2.004" y="1.67" class="i">Contract</text><text x="11.022" y="1.67" class="i">hash:</text><text x="17.034" y="1.67" class="i">zk0x8f29a612eb934a18bb44b31e2cc5e01bf97fde7a5e17a8e299457a28745</text></symbol><symbol id="10"><text y="1.67" class="i">a01cd</text></symbol><symbol id="11"><text y="1.67" class="f">$</text><text x="2.004" y="1.67" class="f">bin/sentctl</text><text x="14.028" y="1.67" class="f">zk-inspect</text><text x="25.05" y="1.67" class="f">projects/payment-gateway/contract.zk</text></symbol><symbol id="12"><text y="1.67" class="g">[SentientOS</text><text x="12.024" y="1.67" class="g">Zero-Knowledge</text><text x="27.054" y="1.67" class="g">Inspector]</text><text x="38.076" y="1.67" class="h">Analyzing</text><text x="48.096" y="1.67" class="h">contract</text><text x="57.114" y="1.67" class="h">structure...</text></symbol><symbol id="13"><text y="1.67" class="h">Contract:</text><text x="10.02" y="1.67" class="h">Payment</text><text x="18.036" y="1.67" class="h">Gateway</text><text x="26.052" y="1.67" class="h">Verification</text></symbol><symbol id="14"><text y="1.67" class="h">┌────────────────────┬────────────────────────────────────┐</text></symbol><symbol id="15"><text y="1.67" class="h">│</text><text x="2.004" y="1.67" class="h">PROPERTY</text><text x="21.042" y="1.67" class="h">│</text><text x="23.046" y="1.67" class="h">VALUE</text><text x="58.116" y="1.67" class="h">│</text></symbol><symbol id="16"><text y="1.67" class="h">├────────────────────┼────────────────────────────────────┤</text></symbol><symbol id="17"><text y="1.67" class="h">│</text><text x="2.004" y="1.67" class="h">Version</text><text x="21.042" y="1.67" class="h">│</text><text x="23.046" y="1.67" class="h">1.2.0</text><text x="58.116" y="1.67" class="h">│</text></symbol><symbol id="18"><text y="1.67" class="h">│</text><text x="2.004" y="1.67" class="h">Created</text><text x="21.042" y="1.67" class="h">│</text><text x="23.046" y="1.67" class="h">2025-07-19</text><text x="34.068" y="1.67" class="h">16:42:11</text><text x="43.086" y="1.67" class="h">UTC</text><text x="58.116" y="1.67" class="h">│</text></symbol><symbol id="19"><text y="1.67" class="h">│</text><text x="2.004" y="1.67" class="h">Author</text><text x="21.042" y="1.67" class="h">│</text><text x="23.046" y="1.67" class="h">SentientOS</text><text x="34.068" y="1.67" class="h">Team</text><text x="58.116" y="1.67" class="h">│</text></symbol><symbol id="20"><text y="1.67" class="h">│</text><text x="2.004" y="1.67" class="h">Verification</text><text x="15.03" y="1.67" class="h">Type</text><text x="21.042" y="1.67" class="h">│</text><text x="23.046" y="1.67" class="h">Groth16</text><text x="58.116" y="1.67" class="h">│</text></symbol><symbol id="21"><text y="1.67" class="h">│</text><text x="2.004" y="1.67" class="h">Public</text><text x="9.018" y="1.67" class="h">Inputs</text><text x="21.042" y="1.67" class="h">│</text><text x="23.046" y="1.67" class="h">3</text><text x="58.116" y="1.67" class="h">│</text></symbol><symbol id="22"><text y="1.67" class="h">│</text><text x="2.004" y="1.67" class="h">Private</text><text x="10.02" y="1.67" class="h">Inputs</text><text x="21.042" y="1.67" class="h">│</text><text x="23.046" y="1.67" class="h">8</text><text x="58.116" y="1.67" class="h">│</text></symbol><symbol id="23"><text y="1.67" class="h">│</text><text x="2.004" y="1.67" class="h">Constraints</text><text x="21.042" y="1.67" class="h">│</text><text x="23.046" y="1.67" class="h">256</text><text x="58.116" y="1.67" class="h">│</text></symbol><symbol id="24"><text y="1.67" class="h">└────────────────────┴────────────────────────────────────┘</text></symbol><symbol id="25"><text y="1.67" class="h">Public</text><text x="7.014" y="1.67" class="h">Schema:</text></symbol><symbol id="26"><text y="1.67" class="h">-</text><text x="2.004" y="1.67" class="h">payment_id:</text><text x="14.028" y="1.67" class="h">uint256</text></symbol><symbol id="27"><text y="1.67" class="h">-</text><text x="2.004" y="1.67" class="h">merchant_id:</text><text x="15.03" y="1.67" class="h">uint64</text></symbol><symbol id="a"><path fill="transparent" d="M0 0h80v25H0z"/></symbol><symbol id="b"><path fill="#6f7683" d="M0 0h1.102v2.171H0z"/></symbol></defs><path class="a" d="M0 0h80v52.104H0z"/><g style="animation-duration:13.569915999999997s;animation-iteration-count:infinite;animation-name:l;animation-timing-function:steps(1,end)"><svg width="1520"><svg><use xlink:href="#a"/><use xlink:href="#b" x="-.004"/></svg><svg x="80"><use xlink:href="#a"/><use xlink:href="#b" x="-.004"/></svg><svg x="160"><use xlink:href="#a"/><use xlink:href="#b" x="-.004" y="2.146"/><use xlink:href="#1"/></svg><svg x="240"><use xlink:href="#a"/><use xlink:href="#b" x="-.004" y="4.317"/><use xlink:href="#1"/><use xlink:href="#2" y="2.171"/></svg><svg x="320"><use xlink:href="#a"/><use xlink:href="#b" x="-.004" y="6.488"/><use xlink:href="#1"/><use xlink:href="#2" y="2.171"/><use xlink:href="#3" y="4.342"/></svg><svg x="400"><use xlink:href="#a"/><use xlink:href="#b" x="-.004" y="8.659"/><use xlink:href="#1"/><use xlink:href="#2" y="2.171"/><use xlink:href="#3" y="4.342"/><use xlink:href="#4" y="6.513"/></svg><svg x="480"><use xlink:href="#a"/><use xlink:href="#b" x="-.004" y="10.83"/><use xlink:href="#1"/><use xlink:href="#2" y="2.171"/><use xlink:href="#3" y="4.342"/><use xlink:href="#4" y="6.513"/><use xlink:href="#5" y="8.684"/></svg><svg x="560"><use xlink:href="#a"/><use xlink:href="#b" x="-.004" y="13.001"/><use xlink:href="#1"/><use xlink:href="#2" y="2.171"/><use xlink:href="#3" y="4.342"/><use xlink:href="#4" y="6.513"/><use xlink:href="#5" y="8.684"/><use xlink:href="#6" y="10.855"/></svg><svg x="640"><use xlink:href="#a"/><use xlink:href="#b" x="-.004" y="15.172"/><use xlink:href="#1"/><use xlink:href="#2" y="2.171"/><use xlink:href="#3" y="4.342"/><use xlink:href="#4" y="6.513"/><use xlink:href="#5" y="8.684"/><use xlink:href="#6" y="10.855"/><use xlink:href="#7" y="13.026"/></svg><svg x="720"><use xlink:href="#a"/><use xlink:href="#b" x="-.004" y="21.685"/><use xlink:href="#1"/><use xlink:href="#2" y="2.171"/><use xlink:href="#3" y="4.342"/><use xlink:href="#4" y="6.513"/><use xlink:href="#5" y="8.684"/><use xlink:href="#6" y="10.855"/><use xlink:href="#7" y="13.026"/><use xlink:href="#8" y="15.197"/><use xlink:href="#9" y="17.368"/><use xlink:href="#10" y="19.539"/></svg><svg x="800"><use xlink:href="#a"/><use xlink:href="#b" x="-.004" y="23.856"/><use xlink:href="#1"/><use xlink:href="#2" y="2.171"/><use xlink:href="#3" y="4.342"/><use xlink:href="#4" y="6.513"/><use xlink:href="#5" y="8.684"/><use xlink:href="#6" y="10.855"/><use xlink:href="#7" y="13.026"/><use xlink:href="#8" y="15.197"/><use xlink:href="#9" y="17.368"/><use xlink:href="#10" y="19.539"/><use xlink:href="#11" y="21.71"/></svg><svg x="880"><use xlink:href="#a"/><use xlink:href="#b" x="-.004" y="26.027"/><use xlink:href="#1"/><use xlink:href="#2" y="2.171"/><use xlink:href="#3" y="4.342"/><use xlink:href="#4" y="6.513"/><use xlink:href="#5" y="8.684"/><use xlink:href="#6" y="10.855"/><use xlink:href="#7" y="13.026"/><use xlink:href="#8" y="15.197"/><use xlink:href="#9" y="17.368"/><use xlink:href="#10" y="19.539"/><use xlink:href="#11" y="21.71"/><use xlink:href="#12" y="23.881"/></svg><svg x="960"><use xlink:href="#a"/><use xlink:href="#b" x="-.004" y="28.198"/><use xlink:href="#1"/><use xlink:href="#2" y="2.171"/><use xlink:href="#3" y="4.342"/><use xlink:href="#4" y="6.513"/><use xlink:href="#5" y="8.684"/><use xlink:href="#6" y="10.855"/><use xlink:href="#7" y="13.026"/><use xlink:href="#8" y="15.197"/><use xlink:href="#9" y="17.368"/><use xlink:href="#10" y="19.539"/><use xlink:href="#11" y="21.71"/><use xlink:href="#12" y="23.881"/><use xlink:href="#13" y="26.052"/></svg><svg x="1040"><use xlink:href="#a"/><use xlink:href="#b" x="-.004" y="43.395"/><use xlink:href="#1"/><use xlink:href="#2" y="2.171"/><use xlink:href="#3" y="4.342"/><use xlink:href="#4" y="6.513"/><use xlink:href="#5" y="8.684"/><use xlink:href="#6" y="10.855"/><use xlink:href="#7" y="13.026"/><use xlink:href="#8" y="15.197"/><use xlink:href="#9" y="17.368"/><use xlink:href="#10" y="19.539"/><use xlink:href="#11" y="21.71"/><use xlink:href="#12" y="23.881"/><use xlink:href="#13" y="26.052"/><use xlink:href="#14" y="28.223"/><use xlink:href="#15" y="30.394"/><use xlink:href="#16" y="32.565"/><use xlink:href="#17" y="34.736"/><use xlink:href="#18" y="36.907"/><use xlink:href="#19" y="39.078"/><use xlink:href="#20" y="41.249"/></svg><svg x="1120"><use xlink:href="#a"/><use xlink:href="#b" x="-.004" y="49.908"/><use xlink:href="#1"/><use xlink:href="#2" y="2.171"/><use xlink:href="#3" y="4.342"/><use xlink:href="#4" y="6.513"/><use xlink:href="#5" y="8.684"/><use xlink:href="#6" y="10.855"/><use xlink:href="#7" y="13.026"/><use xlink:href="#8" y="15.197"/><use xlink:href="#9" y="17.368"/><use xlink:href="#10" y="19.539"/><use xlink:href="#11" y="21.71"/><use xlink:href="#12" y="23.881"/><use xlink:href="#13" y="26.052"/><use xlink:href="#14" y="28.223"/><use xlink:href="#15" y="30.394"/><use xlink:href="#16" y="32.565"/><use xlink:href="#17" y="34.736"/><use xlink:href="#18" y="36.907"/><use xlink:href="#19" y="39.078"/><use xlink:href="#20" y="41.249"/><use xlink:href="#21" y="43.42"/><use xlink:href="#22" y="45.591"/><use xlink:href="#23" y="47.762"/></svg><svg x="1200"><use xlink:href="#a"/><use xlink:href="#b" x="-.004" y="52.079"/><use xlink:href="#2"/><use xlink:href="#3" y="2.171"/><use xlink:href="#4" y="4.342"/><use xlink:href="#5" y="6.513"/><use xlink:href="#6" y="8.684"/><use xlink:href="#7" y="10.855"/><use xlink:href="#8" y="13.026"/><use xlink:href="#9" y="15.197"/><use xlink:href="#10" y="17.368"/><use xlink:href="#11" y="19.539"/><use xlink:href="#12" y="21.71"/><use xlink:href="#13" y="23.881"/><use xlink:href="#14" y="26.052"/><use xlink:href="#15" y="28.223"/><use xlink:href="#16" y="30.394"/><use xlink:href="#17" y="32.565"/><use xlink:href="#18" y="34.736"/><use xlink:href="#19" y="36.907"/><use xlink:href="#20" y="39.078"/><use xlink:href="#21" y="41.249"/><use xlink:href="#22" y="43.42"/><use xlink:href="#23" y="45.591"/><use xlink:href="#24" y="47.762"/></svg><svg x="1280"><use xlink:href="#a"/><use xlink:href="#b" x="-.004" y="52.079"/><use xlink:href="#3"/><use xlink:href="#4" y="2.171"/><use xlink:href="#5" y="4.342"/><use xlink:href="#6" y="6.513"/><use xlink:href="#7" y="8.684"/><use xlink:href="#8" y="10.855"/><use xlink:href="#9" y="13.026"/><use xlink:href="#10" y="15.197"/><use xlink:href="#11" y="17.368"/><use xlink:href="#12" y="19.539"/><use xlink:href="#13" y="21.71"/><use xlink:href="#14" y="23.881"/><use xlink:href="#15" y="26.052"/><use xlink:href="#16" y="28.223"/><use xlink:href="#17" y="30.394"/><use xlink:href="#18" y="32.565"/><use xlink:href="#19" y="34.736"/><use xlink:href="#20" y="36.907"/><use xlink:href="#21" y="39.078"/><use xlink:href="#22" y="41.249"/><use xlink:href="#23" y="43.42"/><use xlink:href="#24" y="45.591"/><use xlink:href="#25" y="49.933"/></svg><svg x="1360"><use xlink:href="#a"/><use xlink:href="#b" x="-.004" y="52.079"/><use xlink:href="#5"/><use xlink:href="#6" y="2.171"/><use xlink:href="#7" y="4.342"/><use xlink:href="#8" y="6.513"/><use xlink:href="#9" y="8.684"/><use xlink:href="#10" y="10.855"/><use xlink:href="#11" y="13.026"/><use xlink:href="#12" y="15.197"/><use xlink:href="#13" y="17.368"/><use xlink:href="#14" y="19.539"/><use xlink:href="#15" y="21.71"/><use xlink:href="#16" y="23.881"/><use xlink:href="#17" y="26.052"/><use xlink:href="#18" y="28.223"/><use xlink:href="#19" y="30.394"/><use xlink:href="#20" y="32.565"/><use xlink:href="#21" y="34.736"/><use xlink:href="#22" y="36.907"/><use xlink:href="#23" y="39.078"/><use xlink:href="#24" y="41.249"/><use xlink:href="#25" y="45.591"/><use xlink:href="#26" y="47.762"/><use xlink:href="#27" y="49.933"/></svg><svg x="1440"><use xlink:href="#a"/><use xlink:href="#b" x="-.004" y="52.079"/><use xlink:href="#6"/><use xlink:href="#7" y="2.171"/><use xlink:href="#8" y="4.342"/><use xlink:href="#9" y="6.513"/><use xlink:href="#10" y="8.684"/><use xlink:href="#11" y="10.855"/><use xlink:href="#12" y="13.026"/><use xlink:href="#13" y="15.197"/><use xlink:href="#14" y="17.368"/><use xlink:href="#15" y="19.539"/><use xlink:href="#16" y="21.71"/><use xlink:href="#17" y="23.881"/><use xlink:href="#18" y="26.052"/><use xlink:href="#19" y="28.223"/><use xlink:href="#20" y="30.394"/><use xlink:href="#21" y="32.565"/><use xlink:href="#22" y="34.736"/><use xlink:href="#23" y="36.907"/><use xlink:href="#24" y="39.078"/><use xlink:href="#25" y="43.42"/><use xlink:href="#26" y="45.591"/><use xlink:href="#27" y="47.762"/><text y="51.603" class="h">-</text><text x="2.004" y="51.603" class="h">timestamp:</text><text x="13.026" y="51.603" class="h">uint64</text></svg></svg></g></g></svg></svg>